<svg width="19" height="18" viewBox="0 0 19 18" fill="none" xmlns="http://www.w3.org/2000/svg">
<path fill-rule="evenodd" clip-rule="evenodd" d="M9.52241 0.270874C7.20488 0.270874 6.91403 0.281007 6.0038 0.32243C5.09535 0.364031 4.47525 0.507854 3.93267 0.718879C3.37142 0.936836 2.89532 1.2284 2.42101 1.70289C1.94634 2.1772 1.65478 2.6533 1.43611 3.21437C1.22455 3.75713 1.08055 4.37741 1.03966 5.2855C0.998948 6.19574 0.988281 6.48676 0.988281 8.8043C0.988281 11.1218 0.998592 11.4118 1.03984 12.322C1.08162 13.2305 1.22544 13.8506 1.43629 14.3932C1.65442 14.9544 1.94598 15.4305 2.42047 15.9048C2.89461 16.3795 3.37071 16.6718 3.9316 16.8897C4.47454 17.1007 5.09481 17.2446 6.00309 17.2862C6.91332 17.3276 7.20399 17.3377 9.52135 17.3377C11.8391 17.3377 12.129 17.3276 13.0393 17.2862C13.9477 17.2446 14.5685 17.1007 15.1115 16.8897C15.6725 16.6718 16.1479 16.3795 16.622 15.9048C17.0967 15.4305 17.3883 14.9544 17.6069 14.3933C17.8167 13.8506 17.9607 13.2303 18.0034 12.3222C18.0443 11.412 18.0549 11.1218 18.0549 8.8043C18.0549 6.48676 18.0443 6.19591 18.0034 5.28568C17.9607 4.37723 17.8167 3.75713 17.6069 3.21455C17.3883 2.6533 17.0967 2.1772 16.622 1.70289C16.1474 1.22822 15.6727 0.936659 15.1109 0.718879C14.5669 0.507854 13.9465 0.364031 13.038 0.32243C12.1278 0.281007 11.838 0.270874 9.51975 0.270874H9.52241ZM8.75686 1.80864C8.98406 1.80829 9.23757 1.80864 9.52238 1.80864C11.8008 1.80864 12.0708 1.81682 12.9706 1.85771C13.8026 1.89576 14.2542 2.03478 14.555 2.15158C14.9532 2.30625 15.2371 2.49114 15.5356 2.78981C15.8343 3.08848 16.0192 3.37293 16.1742 3.77115C16.291 4.0716 16.4302 4.52316 16.468 5.35517C16.5089 6.25473 16.5178 6.52496 16.5178 8.80232C16.5178 11.0797 16.5089 11.3499 16.468 12.2495C16.43 13.0815 16.291 13.533 16.1742 13.8335C16.0195 14.2317 15.8343 14.5153 15.5356 14.8138C15.2369 15.1124 14.9534 15.2973 14.555 15.452C14.2545 15.5693 13.8026 15.708 12.9706 15.746C12.071 15.7869 11.8008 15.7958 9.52238 15.7958C7.24378 15.7958 6.97373 15.7869 6.07416 15.746C5.24216 15.7076 4.7906 15.5686 4.48961 15.4518C4.09139 15.2971 3.80694 15.1122 3.50827 14.8136C3.2096 14.5149 3.02471 14.2312 2.86969 13.8328C2.75289 13.5323 2.61368 13.0808 2.57582 12.2488C2.53493 11.3492 2.52675 11.079 2.52675 8.80018C2.52675 6.5214 2.53493 6.2526 2.57582 5.35304C2.61386 4.52103 2.75289 4.06947 2.86969 3.76866C3.02435 3.37044 3.2096 3.08599 3.50827 2.78732C3.80694 2.48865 4.09139 2.30376 4.48961 2.14874C4.79042 2.0314 5.24216 1.89273 6.07416 1.85451C6.86137 1.81895 7.16644 1.80829 8.75686 1.80651V1.80864ZM14.0775 3.22555C13.5121 3.22555 13.0534 3.68369 13.0534 4.24921C13.0534 4.81455 13.5121 5.27322 14.0775 5.27322C14.6428 5.27322 15.1015 4.81455 15.1015 4.24921C15.1015 3.68387 14.6428 3.22555 14.0775 3.22555ZM9.52243 4.42201C7.10231 4.42201 5.14016 6.38416 5.14016 8.80427C5.14016 11.2244 7.10231 13.1857 9.52243 13.1857C11.9425 13.1857 13.904 11.2244 13.904 8.80427C13.904 6.38416 11.9425 4.42201 9.52243 4.42201ZM9.5224 5.9598C11.0933 5.9598 12.3669 7.23323 12.3669 8.80427C12.3669 10.3751 11.0933 11.6487 9.5224 11.6487C7.95136 11.6487 6.67792 10.3751 6.67792 8.80427C6.67792 7.23323 7.95136 5.9598 9.5224 5.9598Z" fill="white"/>
</svg>
