<svg width="22" height="21" viewBox="0 0 22 21" fill="none" xmlns="http://www.w3.org/2000/svg">
<path fill-rule="evenodd" clip-rule="evenodd" d="M21.7071 1.13131C21.9787 1.36899 22.0708 1.72182 21.9439 2.03908L14.9439 19.5391C14.8084 19.8777 14.4504 20.1097 14.0408 20.1243C13.6311 20.1389 13.2527 19.9332 13.0862 19.6054L9.2424 12.0379L0.593867 8.67461C0.219186 8.5289 -0.0158775 8.19783 0.000836285 7.83936C0.0175501 7.48089 0.282654 7.16767 0.669655 7.04915L20.6697 0.924148C21.0322 0.813106 21.4355 0.893623 21.7071 1.13131ZM11.1928 11.5688L13.8894 16.8778L18.6085 5.08L11.1928 11.5688ZM17.1943 3.84256L3.71108 7.9718L9.77854 10.3314L17.1943 3.84256Z" fill="#FF5722"/>
</svg>