<svg width="19" height="18" viewBox="0 0 19 18" fill="none" xmlns="http://www.w3.org/2000/svg">
<path fill-rule="evenodd" clip-rule="evenodd" d="M18.0549 8.79238C18.0549 9.36947 17.9962 9.94576 17.8808 10.5075C17.7683 11.0559 17.6016 11.5943 17.3833 12.109C17.1699 12.6146 16.9053 13.1018 16.5962 13.5562C16.2916 14.0076 15.9407 14.4312 15.5553 14.8173C15.169 15.2018 14.744 15.5517 14.2927 15.8576C13.8369 16.1646 13.3489 16.4288 12.8431 16.6431C12.3276 16.8603 11.788 17.0268 11.24 17.1391C10.6776 17.2548 10.0992 17.3138 9.52123 17.3138C8.94287 17.3138 8.36451 17.2548 7.80282 17.1391C7.25405 17.0268 6.71443 16.8603 6.1994 16.6431C5.69355 16.4288 5.20517 16.1646 4.74933 15.8576C4.29805 15.5517 3.87303 15.2018 3.48759 14.8173C3.10175 14.4312 2.75088 14.0076 2.44587 13.5562C2.13835 13.1018 1.87332 12.6146 1.65916 12.109C1.44079 11.5943 1.27372 11.0559 1.16079 10.5075C1.04663 9.94576 0.988281 9.36947 0.988281 8.79238C0.988281 8.21485 1.0466 7.63733 1.16083 7.07681C1.27375 6.5284 1.44082 5.98916 1.65919 5.47531C1.87336 4.96936 2.13839 4.48171 2.44591 4.02732C2.75092 3.57547 3.10179 3.1527 3.48763 2.76615C3.87307 2.38166 4.29809 2.0326 4.74936 1.72719C5.20521 1.41885 5.69359 1.15467 6.19943 0.939951C6.71447 0.722295 7.25405 0.555468 7.80285 0.443972C8.36454 0.32914 8.9429 0.270874 9.52126 0.270874C10.0992 0.270874 10.6776 0.32914 11.2401 0.443972C11.788 0.555501 12.3276 0.722328 12.8431 0.939951C13.3489 1.15464 13.8369 1.41885 14.2927 1.72719C14.744 2.0326 15.1691 2.38166 15.5553 2.76615C15.9407 3.1527 16.2916 3.57547 16.5962 4.02732C16.9053 4.48171 17.1699 4.96939 17.3833 5.47531C17.6016 5.98916 17.7683 6.5284 17.8808 7.07681C17.9962 7.63733 18.0549 8.21485 18.0549 8.79238ZM6.41187 2.21025C4.37966 3.16853 2.86291 5.03841 2.38997 7.29195C2.58208 7.29362 5.61891 7.33191 9.11783 6.40358C7.85653 4.16586 6.50896 2.33969 6.41187 2.21025ZM9.7216 7.52415C5.96934 8.64589 2.36872 8.56517 2.23956 8.5602C2.23746 8.63842 2.23372 8.71412 2.23372 8.79237C2.23372 10.6618 2.94 12.3661 4.10089 13.6548C4.09839 13.651 6.09269 10.118 10.0254 8.84813C10.1204 8.81652 10.2171 8.7882 10.3129 8.76075C10.13 8.34718 9.93035 7.93275 9.7216 7.52415ZM14.334 3.33079C13.051 2.20109 11.3663 1.51584 9.52121 1.51584C8.92909 1.51584 8.35447 1.58741 7.80403 1.71972C7.91318 1.8662 9.28203 3.67949 10.5283 5.96461C13.2781 4.93523 14.316 3.35741 14.334 3.33079ZM10.8096 9.96657C10.7934 9.97194 10.7772 9.97657 10.7613 9.98238C6.46157 11.4792 5.05744 14.4956 5.04224 14.5286C6.27942 15.4893 7.83116 16.0689 9.52125 16.0689C10.5304 16.0689 11.4917 15.8637 12.3664 15.4922C12.2584 14.8564 11.8351 12.6279 10.8096 9.96657ZM13.5935 14.8273C15.2298 13.7247 16.3919 11.9738 16.7161 9.94572C16.5661 9.89746 14.5273 9.25293 12.1751 9.62951C13.1309 12.2526 13.5193 14.3888 13.5935 14.8273ZM11.0892 7.04895C11.2584 7.39598 11.4222 7.74918 11.5734 8.10415C11.6272 8.23149 11.6797 8.35632 11.7309 8.48113C14.2344 8.16655 16.7008 8.69581 16.8062 8.71743C16.7895 6.99235 16.1716 5.40913 15.1491 4.16963C15.1353 4.18914 13.9665 5.87556 11.0892 7.04895Z" fill="white"/>
</svg>
