<svg width="17" height="14" viewBox="0 0 17 14" fill="none" xmlns="http://www.w3.org/2000/svg">
<path fill-rule="evenodd" clip-rule="evenodd" d="M8.04253 3.80918L8.0761 4.36281L7.51652 4.29502C5.47964 4.03515 3.70016 3.15385 2.18929 1.67372L1.45064 0.939306L1.26038 1.48164C0.857479 2.6906 1.11489 3.96736 1.95426 4.82606C2.40193 5.3006 2.3012 5.3684 1.52898 5.08593C1.26038 4.99554 1.02535 4.92775 1.00297 4.96164C0.924629 5.04073 1.19323 6.06891 1.40587 6.47567C1.69685 7.0406 2.29001 7.59424 2.93913 7.9219L3.48752 8.18177L2.8384 8.19307C2.21167 8.19307 2.18929 8.20437 2.25644 8.44164C2.48027 9.17606 3.36441 9.95567 4.34928 10.2946L5.04316 10.5319L4.43881 10.8935C3.54348 11.4132 2.49146 11.707 1.43945 11.7296C0.93582 11.7409 0.521729 11.7861 0.521729 11.82C0.521729 11.9329 1.88711 12.5657 2.68172 12.8142C5.06555 13.5487 7.89704 13.2323 10.0235 11.9781C11.5343 11.0855 13.0452 9.31164 13.7503 7.59424C14.1308 6.67904 14.5113 5.00684 14.5113 4.20463C14.5113 3.68489 14.5449 3.6171 15.1716 2.99567C15.5409 2.63411 15.8879 2.23866 15.955 2.12567C16.067 1.91099 16.0558 1.91099 15.485 2.10307C14.5337 2.44203 14.3994 2.39684 14.8694 1.8884C15.2164 1.52684 15.6305 0.871514 15.6305 0.679436C15.6305 0.64554 15.4626 0.702034 15.2723 0.803722C15.0709 0.916709 14.6232 1.08619 14.2875 1.18788L13.6831 1.37996L13.1347 1.0071C12.8326 0.803722 12.4073 0.577748 12.1834 0.509956C11.6127 0.351774 10.7397 0.374372 10.2249 0.555151C8.82595 1.06359 7.9418 2.37424 8.04253 3.80918Z" fill="white"/>
</svg>
