<svg width="25" height="23" viewBox="0 0 25 23" fill="none" xmlns="http://www.w3.org/2000/svg">
<path d="M1.55859 12.6211H20.0435L14.3858 19.4996C14.2548 19.6591 14.1562 19.8432 14.0954 20.0413C14.0347 20.2394 14.0132 20.4477 14.032 20.6543C14.07 21.0715 14.2701 21.4563 14.5884 21.7241C14.9067 21.9918 15.3171 22.1207 15.7292 22.0822C16.1413 22.0437 16.5215 21.8411 16.7861 21.519L24.579 12.0531C24.6315 11.9779 24.6783 11.8988 24.7193 11.8165C24.7193 11.7376 24.7972 11.6903 24.8284 11.6114C24.899 11.4305 24.936 11.238 24.9375 11.0435C24.936 10.849 24.899 10.6564 24.8284 10.4755C24.8284 10.3966 24.7505 10.3493 24.7193 10.2704C24.6783 10.1882 24.6315 10.1091 24.579 10.0338L16.7861 0.567952C16.6395 0.389864 16.456 0.246646 16.2486 0.148484C16.0412 0.050322 15.8149 -0.000373382 15.5859 3.01385e-06C15.2218 -0.000717198 14.8688 0.127664 14.5884 0.362859C14.4306 0.495301 14.3002 0.657956 14.2045 0.841509C14.1089 1.02506 14.05 1.22591 14.0312 1.43254C14.0124 1.63918 14.034 1.84754 14.0949 2.04569C14.1557 2.24385 14.2546 2.42791 14.3858 2.58733L20.0435 9.46582H1.55859C1.14523 9.46582 0.748795 9.63204 0.456502 9.9279C0.164209 10.2238 0 10.625 0 11.0435C0 11.4619 0.164209 11.8632 0.456502 12.159C0.748795 12.4549 1.14523 12.6211 1.55859 12.6211Z" fill="white"/>
</svg>
