<svg width="19" height="14" viewBox="0 0 19 14" fill="none" xmlns="http://www.w3.org/2000/svg">
<path fill-rule="evenodd" clip-rule="evenodd" d="M16.1893 1.30378C16.9237 1.50529 17.502 2.09904 17.6983 2.85304C18.0549 4.21959 18.0549 7.07089 18.0549 7.07089C18.0549 7.07089 18.0549 9.9221 17.6983 11.2887C17.502 12.0428 16.9237 12.6365 16.1893 12.8381C14.8585 13.2042 9.52162 13.2042 9.52162 13.2042C9.52162 13.2042 4.18469 13.2042 2.85378 12.8381C2.11943 12.6365 1.54111 12.0428 1.34484 11.2887C0.988281 9.9221 0.988281 7.07089 0.988281 7.07089C0.988281 7.07089 0.988281 4.21959 1.34484 2.85304C1.54111 2.09904 2.11943 1.50529 2.85378 1.30378C4.18469 0.937561 9.52162 0.937561 9.52162 0.937561C9.52162 0.937561 14.8585 0.937561 16.1893 1.30378ZM7.92163 4.67084V10.0042L12.1883 7.33761L7.92163 4.67084Z" fill="white"/>
</svg>
